<svg xmlns="http://www.w3.org/2000/svg" id="export" class="canvas" preserveAspectRatio="xMidYMid meet" style="" width="281" height="453"><rect id="background" fill="#fff" pointer-events="all" width="281" height="453"/><g id="origin" transform="translate(12.733985900878906, 12.733985900878906) scale(1)"><g id="clusters" class="clusters"/><g id="edge-paths" class="edge-paths"><defs><marker id="arrowhead-vee" viewBox="0 0 10 10" refX="9" refY="5" markerUnits="strokeWidth" markerWidth="8" markerHeight="6" orient="auto" style="fill: rgb(0, 0, 0);"><path d="M 0 0 L 10 5 L 0 10 L 4 5 z" style="stroke-width: 1;"/></marker><marker id="arrowhead-vee-select" viewBox="0 0 10 10" refX="9" refY="5" markerUnits="strokeWidth" markerWidth="8" markerHeight="6" orient="auto" style="fill: rgb(238, 0, 0);"><path d="M 0 0 L 10 5 L 0 10 L 4 5 z" style="stroke-width: 1;"/></marker></defs><path id="edge-image" class="edge-path" d="M72.52149200439453,20.66885087145758L66.68457667032878,22.890709059547984C60.84766133626302,25.112567247638385,49.17383066813151,29.556283623819194,43.33691533406576,35.5281418119096C37.5,41.5,37.5,49,37.5,58.583333333333336C37.5,68.16666666666667,37.5,79.83333333333333,37.5,89.41666666666667C37.5,99,37.5,106.5,37.5,110.25L37.5,114" style="stroke: rgb(0, 0, 0); stroke-width: 1px; fill: none; marker-end: url(&quot;#arrowhead-vee&quot;);"/><path id="edge-image" class="edge-path" d="M118.06836700439453,20.66885087145758L123.90528233846028,22.890709059547984C129.74219767252603,25.112567247638385,141.41602834065756,29.556283623819194,147.2529436747233,35.5281418119096C153.08985900878906,41.5,153.08985900878906,49,153.08985900878906,58.583333333333336C153.08985900878906,68.16666666666667,153.08985900878906,79.83333333333333,153.08985900878906,96.91666666666667C153.08985900878906,114,153.08985900878906,136.5,153.08985900878906,156.91666666666666C153.08985900878906,177.33333333333334,153.08985900878906,195.66666666666666,153.08985900878906,206.5C153.08985900878906,217.33333333333334,153.08985900878906,220.66666666666666,153.08985900878906,222.33333333333334L153.08985900878906,224" style="stroke: rgb(0, 0, 0); stroke-width: 1px; fill: none; marker-end: url(&quot;#arrowhead-vee&quot;);"/><path id="edge-5" class="edge-path" d="M37.5,204L37.5,205.66666666666666C37.5,207.33333333333334,37.5,210.66666666666666,37.5,217.75C37.5,224.83333333333334,37.5,235.66666666666666,37.5,241.08333333333334L37.5,246.5" style="stroke: rgb(0, 0, 0); stroke-width: 1px; fill: none; marker-end: url(&quot;#arrowhead-vee&quot;);"/><path id="edge-7" class="edge-path" d="M37.5,291.5L37.5,296.9166666666667C37.5,302.3333333333333,37.5,313.1666666666667,42.959311167399086,320.6614541427661C48.41862233479818,328.15624161886547,59.33724466959635,332.31248323773093,64.79655583699544,334.39060404716366L70.25586700439453,336.4687248565964" style="stroke: rgb(0, 0, 0); stroke-width: 1px; fill: none; marker-end: url(&quot;#arrowhead-vee&quot;);"/><path id="edge-12" class="edge-path" d="M153.08985900878906,314L153.08985900878906,315.6666666666667C153.08985900878906,317.3333333333333,153.08985900878906,320.6666666666667,147.63054784138998,324.4114541427661C142.17123667399088,328.15624161886547,131.25261433919272,332.31248323773093,125.79330317179362,334.39060404716366L120.33399200439453,336.4687248565964" style="stroke: rgb(0, 0, 0); stroke-width: 1px; fill: none; marker-end: url(&quot;#arrowhead-vee&quot;);"/><path id="edge-output" class="edge-path" d="M95.29492950439453,358L95.29492950439453,361.75C95.29492950439453,365.5,95.29492950439453,373,95.29492950439453,380.5C95.29492950439453,388,95.29492950439453,395.5,95.29492950439453,399.25L95.29492950439453,403" style="stroke: rgb(0, 0, 0); stroke-width: 1px; fill: none; marker-end: url(&quot;#arrowhead-vee&quot;);"/></g><g id="edge-labels" class="edge-labels"><text class="edge-label" id="edge-label-edge-image" transform="translate(42.5,49)" style="opacity: 1; font-family: -apple-system, BlinkMacSystemFont, &quot;Segoe WPC&quot;, &quot;Segoe UI&quot;, Ubuntu, &quot;Droid Sans&quot;, sans-serif, &quot;PingFang SC&quot;; font-size: 10px;"><tspan xml:space="preserve" dy="1em" x="1">batch×3×640×640</tspan></text><text class="edge-label" id="edge-label-edge-image" transform="translate(158.08985900878906,84)" style="opacity: 1; font-family: -apple-system, BlinkMacSystemFont, &quot;Segoe WPC&quot;, &quot;Segoe UI&quot;, Ubuntu, &quot;Droid Sans&quot;, sans-serif, &quot;PingFang SC&quot;; font-size: 10px;"><tspan xml:space="preserve" dy="1em" x="1">batch×3×640×640</tspan></text><text class="edge-label" id="edge-label-edge-output" transform="translate(100.29492950439453,373)" style="opacity: 1; font-family: -apple-system, BlinkMacSystemFont, &quot;Segoe WPC&quot;, &quot;Segoe UI&quot;, Ubuntu, &quot;Droid Sans&quot;, sans-serif, &quot;PingFang SC&quot;; font-size: 10px;"><tspan xml:space="preserve" dy="1em" x="1">batch×3×640×640</tspan></text></g><g id="nodes" class="nodes"><g id="input-name-image" class="node graph-input" transform="translate(72.52149200439453,0)" style="opacity: 1;"><g class="node-item graph-item-input" transform="translate(0,0)"><path d="M5,0h35.546875a5,5 0 0 1 5,5v14a5,5 0 0 1 -5,5h-35.546875a5,5 0 0 1 -5,-5v-14a5,5 0 0 1 5,-5z" style="stroke: rgb(0, 0, 0); fill: rgb(238, 238, 238); stroke-width: 0;"/><text x="6" y="17" style="font-family: -apple-system, BlinkMacSystemFont, &quot;Segoe WPC&quot;, &quot;Segoe UI&quot;, Ubuntu, &quot;Droid Sans&quot;, sans-serif, &quot;PingFang SC&quot;; font-size: 11px; text-rendering: geometricprecision;">image</text><title>float32[batch,3,640,640]</title></g><path class="node border" d="M5,0h35.546875a5,5 0 0 1 5,5v14a5,5 0 0 1 -5,5h-35.546875a5,5 0 0 1 -5,-5v-14a5,5 0 0 1 5,-5z" style="stroke: rgb(51, 51, 51); fill: none; stroke-width: 1px;"/></g><g id="node-name-Slice_4" class="node graph-node" transform="translate(0,114)" style="opacity: 1;"><g class="node-item node-item-type node-item-type-tensor" transform="translate(0,0)"><path d="M5,0h65a5,5 0 0 1 5,5v19a0,0 0 0 1 0,0h-75a0,0 0 0 1 0,0v-19a5,5 0 0 1 5,-5z" style="stroke: rgb(0, 0, 0); fill: rgb(89, 66, 59); stroke-width: 0;"/><text x="6" y="17" style="font-family: -apple-system, BlinkMacSystemFont, &quot;Segoe WPC&quot;, &quot;Segoe UI&quot;, Ubuntu, &quot;Droid Sans&quot;, sans-serif, &quot;PingFang SC&quot;; font-size: 11px; text-rendering: geometricprecision; fill: rgb(255, 255, 255);">Slice</text><title>Slice_4</title></g><g class="node-attribute" transform="translate(0,24)"><path d="M0,0h75a0,0 0 0 1 0,0v61a5,5 0 0 1 -5,5h-65a5,5 0 0 1 -5,-5v-61a0,0 0 0 1 0,0z" style="stroke: rgb(0, 0, 0); fill: rgb(255, 255, 255); stroke-width: 0;"/><text id="initializer-2" xml:space="preserve" x="6" y="14" style="font-family: -apple-system, BlinkMacSystemFont, &quot;Segoe WPC&quot;, &quot;Segoe UI&quot;, Ubuntu, &quot;Droid Sans&quot;, sans-serif, &quot;PingFang SC&quot;; font-size: 9px; font-weight: normal; text-rendering: geometricprecision;"><title>int64[1]</title><tspan style="font-weight: bold;">starts</tspan><tspan>〈1〉</tspan></text><text id="initializer-3" xml:space="preserve" x="6" y="29" style="font-family: -apple-system, BlinkMacSystemFont, &quot;Segoe WPC&quot;, &quot;Segoe UI&quot;, Ubuntu, &quot;Droid Sans&quot;, sans-serif, &quot;PingFang SC&quot;; font-size: 9px; font-weight: normal; text-rendering: geometricprecision;"><title>int64[1]</title><tspan style="font-weight: bold;">ends</tspan><tspan>〈1〉</tspan></text><text id="initializer-1" xml:space="preserve" x="6" y="44" style="font-family: -apple-system, BlinkMacSystemFont, &quot;Segoe WPC&quot;, &quot;Segoe UI&quot;, Ubuntu, &quot;Droid Sans&quot;, sans-serif, &quot;PingFang SC&quot;; font-size: 9px; font-weight: normal; text-rendering: geometricprecision;"><title>int64[1]</title><tspan style="font-weight: bold;">axes</tspan><tspan>〈1〉</tspan></text><text id="initializer-4" xml:space="preserve" x="6" y="59" style="font-family: -apple-system, BlinkMacSystemFont, &quot;Segoe WPC&quot;, &quot;Segoe UI&quot;, Ubuntu, &quot;Droid Sans&quot;, sans-serif, &quot;PingFang SC&quot;; font-size: 9px; font-weight: normal; text-rendering: geometricprecision;"><title>int64[1]</title><tspan style="font-weight: bold;">steps</tspan><tspan>〈1〉</tspan></text><line class="node" x1="0" x2="75" y1="0" y2="0" style="stroke: rgb(51, 51, 51); fill: none; stroke-width: 1px;"/></g><path class="node border" d="M5,0h65a5,5 0 0 1 5,5v80a5,5 0 0 1 -5,5h-65a5,5 0 0 1 -5,-5v-80a5,5 0 0 1 5,-5z" style="stroke: rgb(51, 51, 51); fill: none; stroke-width: 1px;"/></g><g id="node-name-Mul_6" class="node graph-node" transform="translate(0,246.5)" style="opacity: 1;"><g class="node-item node-item-type" transform="translate(0,0)"><path d="M5,0h65a5,5 0 0 1 5,5v19a0,0 0 0 1 0,0h-75a0,0 0 0 1 0,0v-19a5,5 0 0 1 5,-5z" style="stroke: rgb(0, 0, 0); fill: rgb(0, 0, 0); stroke-width: 0;"/><text x="6" y="17" style="font-family: -apple-system, BlinkMacSystemFont, &quot;Segoe WPC&quot;, &quot;Segoe UI&quot;, Ubuntu, &quot;Droid Sans&quot;, sans-serif, &quot;PingFang SC&quot;; font-size: 11px; text-rendering: geometricprecision; fill: rgb(255, 255, 255);">Mul</text><title>Mul_6</title></g><g class="node-attribute" transform="translate(0,24)"><path d="M0,0h75a0,0 0 0 1 0,0v16a5,5 0 0 1 -5,5h-65a5,5 0 0 1 -5,-5v-16a0,0 0 0 1 0,0z" style="stroke: rgb(0, 0, 0); fill: rgb(255, 255, 255); stroke-width: 0;"/><text id="initializer-6" xml:space="preserve" x="6" y="14" style="font-family: -apple-system, BlinkMacSystemFont, &quot;Segoe WPC&quot;, &quot;Segoe UI&quot;, Ubuntu, &quot;Droid Sans&quot;, sans-serif, &quot;PingFang SC&quot;; font-size: 9px; font-weight: normal; text-rendering: geometricprecision;"><title>float32</title><tspan>B</tspan><tspan> = 0.5</tspan></text><line class="node" x1="0" x2="75" y1="0" y2="0" style="stroke: rgb(51, 51, 51); fill: none; stroke-width: 1px;"/></g><path class="node border" d="M5,0h65a5,5 0 0 1 5,5v35a5,5 0 0 1 -5,5h-65a5,5 0 0 1 -5,-5v-35a5,5 0 0 1 5,-5z" style="stroke: rgb(51, 51, 51); fill: none; stroke-width: 1px;"/></g><g id="node-name-Slice_11" class="node graph-node" transform="translate(115.58985900878906,224)" style="opacity: 1;"><g class="node-item node-item-type node-item-type-tensor" transform="translate(0,0)"><path d="M5,0h65a5,5 0 0 1 5,5v19a0,0 0 0 1 0,0h-75a0,0 0 0 1 0,0v-19a5,5 0 0 1 5,-5z" style="stroke: rgb(0, 0, 0); fill: rgb(89, 66, 59); stroke-width: 0;"/><text x="6" y="17" style="font-family: -apple-system, BlinkMacSystemFont, &quot;Segoe WPC&quot;, &quot;Segoe UI&quot;, Ubuntu, &quot;Droid Sans&quot;, sans-serif, &quot;PingFang SC&quot;; font-size: 11px; text-rendering: geometricprecision; fill: rgb(255, 255, 255);">Slice</text><title>Slice_11</title></g><g class="node-attribute" transform="translate(0,24)"><path d="M0,0h75a0,0 0 0 1 0,0v61a5,5 0 0 1 -5,5h-65a5,5 0 0 1 -5,-5v-61a0,0 0 0 1 0,0z" style="stroke: rgb(0, 0, 0); fill: rgb(255, 255, 255); stroke-width: 0;"/><text id="initializer-9" xml:space="preserve" x="6" y="14" style="font-family: -apple-system, BlinkMacSystemFont, &quot;Segoe WPC&quot;, &quot;Segoe UI&quot;, Ubuntu, &quot;Droid Sans&quot;, sans-serif, &quot;PingFang SC&quot;; font-size: 9px; font-weight: normal; text-rendering: geometricprecision;"><title>int64[1]</title><tspan style="font-weight: bold;">starts</tspan><tspan>〈1〉</tspan></text><text id="initializer-10" xml:space="preserve" x="6" y="29" style="font-family: -apple-system, BlinkMacSystemFont, &quot;Segoe WPC&quot;, &quot;Segoe UI&quot;, Ubuntu, &quot;Droid Sans&quot;, sans-serif, &quot;PingFang SC&quot;; font-size: 9px; font-weight: normal; text-rendering: geometricprecision;"><title>int64[1]</title><tspan style="font-weight: bold;">ends</tspan><tspan>〈1〉</tspan></text><text id="initializer-8" xml:space="preserve" x="6" y="44" style="font-family: -apple-system, BlinkMacSystemFont, &quot;Segoe WPC&quot;, &quot;Segoe UI&quot;, Ubuntu, &quot;Droid Sans&quot;, sans-serif, &quot;PingFang SC&quot;; font-size: 9px; font-weight: normal; text-rendering: geometricprecision;"><title>int64[1]</title><tspan style="font-weight: bold;">axes</tspan><tspan>〈1〉</tspan></text><text id="initializer-11" xml:space="preserve" x="6" y="59" style="font-family: -apple-system, BlinkMacSystemFont, &quot;Segoe WPC&quot;, &quot;Segoe UI&quot;, Ubuntu, &quot;Droid Sans&quot;, sans-serif, &quot;PingFang SC&quot;; font-size: 9px; font-weight: normal; text-rendering: geometricprecision;"><title>int64[1]</title><tspan style="font-weight: bold;">steps</tspan><tspan>〈1〉</tspan></text><line class="node" x1="0" x2="75" y1="0" y2="0" style="stroke: rgb(51, 51, 51); fill: none; stroke-width: 1px;"/></g><path class="node border" d="M5,0h65a5,5 0 0 1 5,5v80a5,5 0 0 1 -5,5h-65a5,5 0 0 1 -5,-5v-80a5,5 0 0 1 5,-5z" style="stroke: rgb(51, 51, 51); fill: none; stroke-width: 1px;"/></g><g id="node-name-Concat_12" class="node graph-node" transform="translate(70.25586700439453,334)" style="opacity: 1;"><g class="node-item node-item-type node-item-type-tensor" transform="translate(0,0)"><path d="M5,0h40.078125a5,5 0 0 1 5,5v14a5,5 0 0 1 -5,5h-40.078125a5,5 0 0 1 -5,-5v-14a5,5 0 0 1 5,-5z" style="stroke: rgb(0, 0, 0); fill: rgb(89, 66, 59); stroke-width: 0;"/><text x="6" y="17" style="font-family: -apple-system, BlinkMacSystemFont, &quot;Segoe WPC&quot;, &quot;Segoe UI&quot;, Ubuntu, &quot;Droid Sans&quot;, sans-serif, &quot;PingFang SC&quot;; font-size: 11px; text-rendering: geometricprecision; fill: rgb(255, 255, 255);">Concat</text><title>Concat_12</title></g><path class="node border" d="M5,0h40.078125a5,5 0 0 1 5,5v14a5,5 0 0 1 -5,5h-40.078125a5,5 0 0 1 -5,-5v-14a5,5 0 0 1 5,-5z" style="stroke: rgb(51, 51, 51); fill: none; stroke-width: 1px;"/></g><g class="node" transform="translate(70.72461700439453,403)" style="opacity: 1;"><g class="node-item graph-item-output" transform="translate(0,0)"><path d="M5,0h39.140625a5,5 0 0 1 5,5v14a5,5 0 0 1 -5,5h-39.140625a5,5 0 0 1 -5,-5v-14a5,5 0 0 1 5,-5z" style="stroke: rgb(0, 0, 0); fill: rgb(238, 238, 238); stroke-width: 0;"/><text x="6" y="17" style="font-family: -apple-system, BlinkMacSystemFont, &quot;Segoe WPC&quot;, &quot;Segoe UI&quot;, Ubuntu, &quot;Droid Sans&quot;, sans-serif, &quot;PingFang SC&quot;; font-size: 11px; text-rendering: geometricprecision;">output</text><title>float32[batch,3,640,640]</title></g><path class="node border" d="M5,0h39.140625a5,5 0 0 1 5,5v14a5,5 0 0 1 -5,5h-39.140625a5,5 0 0 1 -5,-5v-14a5,5 0 0 1 5,-5z" style="stroke: rgb(51, 51, 51); fill: none; stroke-width: 1px;"/></g></g></g></svg>