<svg xmlns="http://www.w3.org/2000/svg" id="export" class="canvas" preserveAspectRatio="xMidYMid meet" style="" width="144" height="125"><rect id="background" fill="#fff" pointer-events="all" width="144" height="125"/><g id="origin" transform="translate(5.65, 5.65) scale(1)"><g id="clusters" class="clusters"/><g id="edge-paths" class="edge-paths"><defs><marker id="arrowhead-vee" viewBox="0 0 10 10" refX="9" refY="5" markerUnits="strokeWidth" markerWidth="8" markerHeight="6" orient="auto" style="fill: rgb(0, 0, 0);"><path d="M 0 0 L 10 5 L 0 10 L 4 5 z" style="stroke-width: 1;"/></marker><marker id="arrowhead-vee-select" viewBox="0 0 10 10" refX="9" refY="5" markerUnits="strokeWidth" markerWidth="8" markerHeight="6" orient="auto" style="fill: rgb(238, 0, 0);"><path d="M 0 0 L 10 5 L 0 10 L 4 5 z" style="stroke-width: 1;"/></marker></defs><path id="edge-output" class="edge-path" d="M30.140625,24L30.140625,25.666666666666668C30.140625,27.333333333333332,30.140625,30.666666666666668,30.140625,36.083333333333336C30.140625,41.5,30.140625,49,30.140625,56.5C30.140625,64,30.140625,71.5,30.140625,76.91666666666667C30.140625,82.33333333333333,30.140625,85.66666666666667,30.140625,87.33333333333333L30.140625,89" style="stroke: rgb(0, 0, 0); stroke-width: 1px; fill: none; marker-end: url(&quot;#arrowhead-vee&quot;);"/></g><g id="edge-labels" class="edge-labels"><text class="edge-label" id="edge-label-edge-output" transform="translate(35.140625,49)" style="opacity: 1; font-family: -apple-system, BlinkMacSystemFont, &quot;Segoe WPC&quot;, &quot;Segoe UI&quot;, Ubuntu, &quot;Droid Sans&quot;, sans-serif, &quot;PingFang SC&quot;; font-size: 10px;"><tspan xml:space="preserve" dy="1em" x="1">batch×3×640×640</tspan></text></g><g id="nodes" class="nodes"><g id="node-name-Constant_0" class="node graph-node" transform="translate(0,0)" style="opacity: 1;"><g class="node-item node-item-type node-item-type-constant" transform="translate(0,0)"><path d="M5,0h50.28125a5,5 0 0 1 5,5v14a5,5 0 0 1 -5,5h-50.28125a5,5 0 0 1 -5,-5v-14a5,5 0 0 1 5,-5z" style="stroke: rgb(0, 0, 0); fill: rgb(238, 238, 238); stroke-width: 0;"/><text x="6" y="17" style="font-family: -apple-system, BlinkMacSystemFont, &quot;Segoe WPC&quot;, &quot;Segoe UI&quot;, Ubuntu, &quot;Droid Sans&quot;, sans-serif, &quot;PingFang SC&quot;; font-size: 11px; text-rendering: geometricprecision; fill: rgb(0, 0, 0);">Constant</text><title>Constant_0</title></g><path class="node border" d="M5,0h50.28125a5,5 0 0 1 5,5v14a5,5 0 0 1 -5,5h-50.28125a5,5 0 0 1 -5,-5v-14a5,5 0 0 1 5,-5z" style="stroke: rgb(51, 51, 51); fill: none; stroke-width: 1px;"/></g><g class="node" transform="translate(5.5703125,89)" style="opacity: 1;"><g class="node-item graph-item-output" transform="translate(0,0)"><path d="M5,0h39.140625a5,5 0 0 1 5,5v14a5,5 0 0 1 -5,5h-39.140625a5,5 0 0 1 -5,-5v-14a5,5 0 0 1 5,-5z" style="stroke: rgb(0, 0, 0); fill: rgb(238, 238, 238); stroke-width: 0;"/><text x="6" y="17" style="font-family: -apple-system, BlinkMacSystemFont, &quot;Segoe WPC&quot;, &quot;Segoe UI&quot;, Ubuntu, &quot;Droid Sans&quot;, sans-serif, &quot;PingFang SC&quot;; font-size: 11px; text-rendering: geometricprecision;">output</text><title>float32[batch,3,640,640]</title></g><path class="node border" d="M5,0h39.140625a5,5 0 0 1 5,5v14a5,5 0 0 1 -5,5h-39.140625a5,5 0 0 1 -5,-5v-14a5,5 0 0 1 5,-5z" style="stroke: rgb(51, 51, 51); fill: none; stroke-width: 1px;"/></g></g></g></svg>