<svg xmlns="http://www.w3.org/2000/svg" id="export" class="canvas" preserveAspectRatio="xMidYMid meet" style="" width="522" height="390"><rect id="background" fill="#fff" pointer-events="all" width="522" height="390"/><g id="origin" transform="translate(17.7, 17.7) scale(1)"><g id="clusters" class="clusters"/><g id="edge-paths" class="edge-paths"><defs><marker id="arrowhead-vee" viewBox="0 0 10 10" refX="9" refY="5" markerUnits="strokeWidth" markerWidth="8" markerHeight="6" orient="auto" style="fill: rgb(0, 0, 0);"><path d="M 0 0 L 10 5 L 0 10 L 4 5 z" style="stroke-width: 1;"/></marker><marker id="arrowhead-vee-select" viewBox="0 0 10 10" refX="9" refY="5" markerUnits="strokeWidth" markerWidth="8" markerHeight="6" orient="auto" style="fill: rgb(238, 0, 0);"><path d="M 0 0 L 10 5 L 0 10 L 4 5 z" style="stroke-width: 1;"/></marker></defs><path id="edge-image" class="edge-path" d="M188.1113510131836,14.889616957152526L163.00945917765299,18.074680797627106C137.9075673421224,21.259744638101683,87.7037836710612,27.629872319050843,62.6018918355306,34.56493615952542C37.5,41.5,37.5,49,37.5,56.5C37.5,64,37.5,71.5,37.5,76.91666666666667C37.5,82.33333333333333,37.5,85.66666666666667,37.5,87.33333333333333L37.5,89" style="stroke: rgb(0, 0, 0); stroke-width: 1px; fill: none; marker-end: url(&quot;#arrowhead-vee&quot;);"/><path id="edge-image" class="edge-path" d="M188.1113510131836,20.66885087145758L182.27443567911783,22.890709059547984C176.4375203450521,25.112567247638385,164.76368967692056,29.556283623819194,158.92677434285483,35.5281418119096C153.08985900878906,41.5,153.08985900878906,49,153.08985900878906,56.5C153.08985900878906,64,153.08985900878906,71.5,153.08985900878906,76.91666666666667C153.08985900878906,82.33333333333333,153.08985900878906,85.66666666666667,153.08985900878906,87.33333333333333L153.08985900878906,89" style="stroke: rgb(0, 0, 0); stroke-width: 1px; fill: none; marker-end: url(&quot;#arrowhead-vee&quot;);"/><path id="edge-image" class="edge-path" d="M233.6582260131836,20.66885087145758L239.49514134724936,22.890709059547984C245.3320566813151,25.112567247638385,257.0058873494466,29.556283623819194,262.8428026835124,35.5281418119096C268.6797180175781,41.5,268.6797180175781,49,268.6797180175781,56.5C268.6797180175781,64,268.6797180175781,71.5,268.6797180175781,76.91666666666667C268.6797180175781,82.33333333333333,268.6797180175781,85.66666666666667,268.6797180175781,87.33333333333333L268.6797180175781,89" style="stroke: rgb(0, 0, 0); stroke-width: 1px; fill: none; marker-end: url(&quot;#arrowhead-vee&quot;);"/><path id="edge-image" class="edge-path" d="M233.6582260131836,14.889616957152526L258.7601178487142,18.074680797627106C283.8620096842448,21.259744638101683,334.06579335530597,27.629872319050843,359.1676851908366,34.56493615952542C384.2695770263672,41.5,384.2695770263672,49,384.2695770263672,56.5C384.2695770263672,64,384.2695770263672,71.5,384.2695770263672,76.91666666666667C384.2695770263672,82.33333333333333,384.2695770263672,85.66666666666667,384.2695770263672,87.33333333333333L384.2695770263672,89" style="stroke: rgb(0, 0, 0); stroke-width: 1px; fill: none; marker-end: url(&quot;#arrowhead-vee&quot;);"/><path id="edge-1" class="edge-path" d="M37.5,113L37.5,114.66666666666667C37.5,116.33333333333333,37.5,119.66666666666667,37.5,123C37.5,126.33333333333333,37.5,129.66666666666666,37.5,131.33333333333334L37.5,133" style="stroke: rgb(0, 0, 0); stroke-width: 1px; fill: none; marker-end: url(&quot;#arrowhead-vee&quot;);"/><path id="edge-3" class="edge-path" d="M37.5,178L37.5,179.66666666666666C37.5,181.33333333333334,37.5,184.66666666666666,37.5,188C37.5,191.33333333333334,37.5,194.66666666666666,37.5,196.33333333333334L37.5,198" style="stroke: rgb(0, 0, 0); stroke-width: 1px; fill: none; marker-end: url(&quot;#arrowhead-vee&quot;);"/><path id="edge-4" class="edge-path" d="M153.08985900878906,113L153.08985900878906,114.66666666666667C153.08985900878906,116.33333333333333,153.08985900878906,119.66666666666667,153.08985900878906,123C153.08985900878906,126.33333333333333,153.08985900878906,129.66666666666666,153.08985900878906,131.33333333333334L153.08985900878906,133" style="stroke: rgb(0, 0, 0); stroke-width: 1px; fill: none; marker-end: url(&quot;#arrowhead-vee&quot;);"/><path id="edge-6" class="edge-path" d="M153.08985900878906,178L153.08985900878906,179.66666666666666C153.08985900878906,181.33333333333334,153.08985900878906,184.66666666666666,153.08985900878906,188C153.08985900878906,191.33333333333334,153.08985900878906,194.66666666666666,153.08985900878906,196.33333333333334L153.08985900878906,198" style="stroke: rgb(0, 0, 0); stroke-width: 1px; fill: none; marker-end: url(&quot;#arrowhead-vee&quot;);"/><path id="edge-7" class="edge-path" d="M268.6797180175781,113L268.6797180175781,114.66666666666667C268.6797180175781,116.33333333333333,268.6797180175781,119.66666666666667,268.6797180175781,123C268.6797180175781,126.33333333333333,268.6797180175781,129.66666666666666,268.6797180175781,131.33333333333334L268.6797180175781,133" style="stroke: rgb(0, 0, 0); stroke-width: 1px; fill: none; marker-end: url(&quot;#arrowhead-vee&quot;);"/><path id="edge-9" class="edge-path" d="M268.6797180175781,178L268.6797180175781,179.66666666666666C268.6797180175781,181.33333333333334,268.6797180175781,184.66666666666666,268.6797180175781,188C268.6797180175781,191.33333333333334,268.6797180175781,194.66666666666666,268.6797180175781,196.33333333333334L268.6797180175781,198" style="stroke: rgb(0, 0, 0); stroke-width: 1px; fill: none; marker-end: url(&quot;#arrowhead-vee&quot;);"/><path id="edge-10" class="edge-path" d="M384.2695770263672,113L384.2695770263672,114.66666666666667C384.2695770263672,116.33333333333333,384.2695770263672,119.66666666666667,384.2695770263672,123C384.2695770263672,126.33333333333333,384.2695770263672,129.66666666666666,384.2695770263672,131.33333333333334L384.2695770263672,133" style="stroke: rgb(0, 0, 0); stroke-width: 1px; fill: none; marker-end: url(&quot;#arrowhead-vee&quot;);"/><path id="edge-12" class="edge-path" d="M384.2695770263672,178L384.2695770263672,179.66666666666666C384.2695770263672,181.33333333333334,384.2695770263672,184.66666666666666,384.2695770263672,188C384.2695770263672,191.33333333333334,384.2695770263672,194.66666666666666,384.2695770263672,196.33333333333334L384.2695770263672,198" style="stroke: rgb(0, 0, 0); stroke-width: 1px; fill: none; marker-end: url(&quot;#arrowhead-vee&quot;);"/><path id="edge-13" class="edge-path" d="M37.5,222L37.5,223.66666666666666C37.5,225.33333333333334,37.5,228.66666666666666,62.22428766886393,233.47048471425535C86.94857533772786,238.27430276184404,136.39715067545572,244.54860552368805,161.12143834431967,247.6857569046101L185.8457260131836,250.82290828553212" style="stroke: rgb(0, 0, 0); stroke-width: 1px; fill: none; marker-end: url(&quot;#arrowhead-vee&quot;);"/><path id="edge-14" class="edge-path" d="M153.08985900878906,222L153.08985900878906,223.66666666666666C153.08985900878906,225.33333333333334,153.08985900878906,228.66666666666666,158.54917017618814,232.41145414276608C164.00848134358725,236.15624161886547,174.9271036783854,240.31248323773093,180.38641484578451,242.3906040471637L185.8457260131836,244.4687248565964" style="stroke: rgb(0, 0, 0); stroke-width: 1px; fill: none; marker-end: url(&quot;#arrowhead-vee&quot;);"/><path id="edge-15" class="edge-path" d="M268.6797180175781,222L268.6797180175781,223.66666666666666C268.6797180175781,225.33333333333334,268.6797180175781,228.66666666666666,263.220406850179,232.41145414276608C257.76109568277997,236.15624161886547,246.84247334798178,240.31248323773093,241.38316218058267,242.3906040471637L235.9238510131836,244.4687248565964" style="stroke: rgb(0, 0, 0); stroke-width: 1px; fill: none; marker-end: url(&quot;#arrowhead-vee&quot;);"/><path id="edge-16" class="edge-path" d="M384.2695770263672,222L384.2695770263672,223.66666666666666C384.2695770263672,225.33333333333334,384.2695770263672,228.66666666666666,359.54528935750324,233.47048471425535C334.82100168863934,238.27430276184404,285.37242635091144,244.54860552368805,260.64813868204754,247.6857569046101L235.9238510131836,250.82290828553212" style="stroke: rgb(0, 0, 0); stroke-width: 1px; fill: none; marker-end: url(&quot;#arrowhead-vee&quot;);"/><path id="edge-17" class="edge-path" d="M210.8847885131836,266L210.8847885131836,267.6666666666667C210.8847885131836,269.3333333333333,210.8847885131836,272.6666666666667,210.8847885131836,276C210.8847885131836,279.3333333333333,210.8847885131836,282.6666666666667,210.8847885131836,284.3333333333333L210.8847885131836,286" style="stroke: rgb(0, 0, 0); stroke-width: 1px; fill: none; marker-end: url(&quot;#arrowhead-vee&quot;);"/><path id="edge-output" class="edge-path" d="M210.8847885131836,310L210.8847885131836,311.6666666666667C210.8847885131836,313.3333333333333,210.8847885131836,316.6666666666667,210.8847885131836,320C210.8847885131836,323.3333333333333,210.8847885131836,326.6666666666667,210.8847885131836,328.3333333333333L210.8847885131836,330" style="stroke: rgb(0, 0, 0); stroke-width: 1px; fill: none; marker-end: url(&quot;#arrowhead-vee&quot;);"/></g><g id="edge-labels" class="edge-labels"><text class="edge-label" id="edge-label-edge-image" transform="translate(42.5,49)" style="opacity: 1; font-family: -apple-system, BlinkMacSystemFont, &quot;Segoe WPC&quot;, &quot;Segoe UI&quot;, Ubuntu, &quot;Droid Sans&quot;, sans-serif, &quot;PingFang SC&quot;; font-size: 10px;"><tspan xml:space="preserve" dy="1em" x="1">batch×3×640×640</tspan></text><text class="edge-label" id="edge-label-edge-image" transform="translate(158.08985900878906,49)" style="opacity: 1; font-family: -apple-system, BlinkMacSystemFont, &quot;Segoe WPC&quot;, &quot;Segoe UI&quot;, Ubuntu, &quot;Droid Sans&quot;, sans-serif, &quot;PingFang SC&quot;; font-size: 10px;"><tspan xml:space="preserve" dy="1em" x="1">batch×3×640×640</tspan></text><text class="edge-label" id="edge-label-edge-image" transform="translate(273.6797180175781,49)" style="opacity: 1; font-family: -apple-system, BlinkMacSystemFont, &quot;Segoe WPC&quot;, &quot;Segoe UI&quot;, Ubuntu, &quot;Droid Sans&quot;, sans-serif, &quot;PingFang SC&quot;; font-size: 10px;"><tspan xml:space="preserve" dy="1em" x="1">batch×3×640×640</tspan></text><text class="edge-label" id="edge-label-edge-image" transform="translate(389.2695770263672,49)" style="opacity: 1; font-family: -apple-system, BlinkMacSystemFont, &quot;Segoe WPC&quot;, &quot;Segoe UI&quot;, Ubuntu, &quot;Droid Sans&quot;, sans-serif, &quot;PingFang SC&quot;; font-size: 10px;"><tspan xml:space="preserve" dy="1em" x="1">batch×3×640×640</tspan></text></g><g id="nodes" class="nodes"><g id="input-name-image" class="node graph-input" transform="translate(188.1113510131836,0)" style="opacity: 1;"><g class="node-item graph-item-input" transform="translate(0,0)"><path d="M5,0h35.546875a5,5 0 0 1 5,5v14a5,5 0 0 1 -5,5h-35.546875a5,5 0 0 1 -5,-5v-14a5,5 0 0 1 5,-5z" style="stroke: rgb(0, 0, 0); fill: rgb(238, 238, 238); stroke-width: 0;"/><text x="6" y="17" style="font-family: -apple-system, BlinkMacSystemFont, &quot;Segoe WPC&quot;, &quot;Segoe UI&quot;, Ubuntu, &quot;Droid Sans&quot;, sans-serif, &quot;PingFang SC&quot;; font-size: 11px; text-rendering: geometricprecision;">image</text><title>float32[batch,3,640,640]</title></g><path class="node border" d="M5,0h35.546875a5,5 0 0 1 5,5v14a5,5 0 0 1 -5,5h-35.546875a5,5 0 0 1 -5,-5v-14a5,5 0 0 1 5,-5z" style="stroke: rgb(51, 51, 51); fill: none; stroke-width: 1px;"/></g><g id="node-name-Shape_0" class="node graph-node" transform="translate(14.3125,89)" style="opacity: 1;"><g class="node-item node-item-type" transform="translate(0,0)"><path d="M5,0h36.375a5,5 0 0 1 5,5v14a5,5 0 0 1 -5,5h-36.375a5,5 0 0 1 -5,-5v-14a5,5 0 0 1 5,-5z" style="stroke: rgb(0, 0, 0); fill: rgb(0, 0, 0); stroke-width: 0;"/><text x="6" y="17" style="font-family: -apple-system, BlinkMacSystemFont, &quot;Segoe WPC&quot;, &quot;Segoe UI&quot;, Ubuntu, &quot;Droid Sans&quot;, sans-serif, &quot;PingFang SC&quot;; font-size: 11px; text-rendering: geometricprecision; fill: rgb(255, 255, 255);">Shape</text><title>Shape_0</title></g><path class="node border" d="M5,0h36.375a5,5 0 0 1 5,5v14a5,5 0 0 1 -5,5h-36.375a5,5 0 0 1 -5,-5v-14a5,5 0 0 1 5,-5z" style="stroke: rgb(51, 51, 51); fill: none; stroke-width: 1px;"/></g><g id="node-name-Gather_2" class="node graph-node" transform="translate(0,133)" style="opacity: 1;"><g class="node-item node-item-type node-item-type-transform" transform="translate(0,0)"><path d="M5,0h65a5,5 0 0 1 5,5v19a0,0 0 0 1 0,0h-75a0,0 0 0 1 0,0v-19a5,5 0 0 1 5,-5z" style="stroke: rgb(0, 0, 0); fill: rgb(51, 85, 68); stroke-width: 0;"/><text x="6" y="17" style="font-family: -apple-system, BlinkMacSystemFont, &quot;Segoe WPC&quot;, &quot;Segoe UI&quot;, Ubuntu, &quot;Droid Sans&quot;, sans-serif, &quot;PingFang SC&quot;; font-size: 11px; text-rendering: geometricprecision; fill: rgb(255, 255, 255);">Gather</text><title>Gather_2</title></g><g class="node-attribute" transform="translate(0,24)"><path d="M0,0h75a0,0 0 0 1 0,0v16a5,5 0 0 1 -5,5h-65a5,5 0 0 1 -5,-5v-16a0,0 0 0 1 0,0z" style="stroke: rgb(0, 0, 0); fill: rgb(255, 255, 255); stroke-width: 0;"/><text id="initializer-2" xml:space="preserve" x="6" y="14" style="font-family: -apple-system, BlinkMacSystemFont, &quot;Segoe WPC&quot;, &quot;Segoe UI&quot;, Ubuntu, &quot;Droid Sans&quot;, sans-serif, &quot;PingFang SC&quot;; font-size: 9px; font-weight: normal; text-rendering: geometricprecision;"><title>int64</title><tspan>indices</tspan><tspan> = 0</tspan></text><line class="node" x1="0" x2="75" y1="0" y2="0" style="stroke: rgb(51, 51, 51); fill: none; stroke-width: 1px;"/></g><path class="node border" d="M5,0h65a5,5 0 0 1 5,5v35a5,5 0 0 1 -5,5h-65a5,5 0 0 1 -5,-5v-35a5,5 0 0 1 5,-5z" style="stroke: rgb(51, 51, 51); fill: none; stroke-width: 1px;"/></g><g id="node-name-Shape_3" class="node graph-node" transform="translate(129.90235900878906,89)" style="opacity: 1;"><g class="node-item node-item-type" transform="translate(0,0)"><path d="M5,0h36.375a5,5 0 0 1 5,5v14a5,5 0 0 1 -5,5h-36.375a5,5 0 0 1 -5,-5v-14a5,5 0 0 1 5,-5z" style="stroke: rgb(0, 0, 0); fill: rgb(0, 0, 0); stroke-width: 0;"/><text x="6" y="17" style="font-family: -apple-system, BlinkMacSystemFont, &quot;Segoe WPC&quot;, &quot;Segoe UI&quot;, Ubuntu, &quot;Droid Sans&quot;, sans-serif, &quot;PingFang SC&quot;; font-size: 11px; text-rendering: geometricprecision; fill: rgb(255, 255, 255);">Shape</text><title>Shape_3</title></g><path class="node border" d="M5,0h36.375a5,5 0 0 1 5,5v14a5,5 0 0 1 -5,5h-36.375a5,5 0 0 1 -5,-5v-14a5,5 0 0 1 5,-5z" style="stroke: rgb(51, 51, 51); fill: none; stroke-width: 1px;"/></g><g id="node-name-Gather_5" class="node graph-node" transform="translate(115.58985900878906,133)" style="opacity: 1;"><g class="node-item node-item-type node-item-type-transform" transform="translate(0,0)"><path d="M5,0h65a5,5 0 0 1 5,5v19a0,0 0 0 1 0,0h-75a0,0 0 0 1 0,0v-19a5,5 0 0 1 5,-5z" style="stroke: rgb(0, 0, 0); fill: rgb(51, 85, 68); stroke-width: 0;"/><text x="6" y="17" style="font-family: -apple-system, BlinkMacSystemFont, &quot;Segoe WPC&quot;, &quot;Segoe UI&quot;, Ubuntu, &quot;Droid Sans&quot;, sans-serif, &quot;PingFang SC&quot;; font-size: 11px; text-rendering: geometricprecision; fill: rgb(255, 255, 255);">Gather</text><title>Gather_5</title></g><g class="node-attribute" transform="translate(0,24)"><path d="M0,0h75a0,0 0 0 1 0,0v16a5,5 0 0 1 -5,5h-65a5,5 0 0 1 -5,-5v-16a0,0 0 0 1 0,0z" style="stroke: rgb(0, 0, 0); fill: rgb(255, 255, 255); stroke-width: 0;"/><text id="initializer-5" xml:space="preserve" x="6" y="14" style="font-family: -apple-system, BlinkMacSystemFont, &quot;Segoe WPC&quot;, &quot;Segoe UI&quot;, Ubuntu, &quot;Droid Sans&quot;, sans-serif, &quot;PingFang SC&quot;; font-size: 9px; font-weight: normal; text-rendering: geometricprecision;"><title>int64</title><tspan>indices</tspan><tspan> = 1</tspan></text><line class="node" x1="0" x2="75" y1="0" y2="0" style="stroke: rgb(51, 51, 51); fill: none; stroke-width: 1px;"/></g><path class="node border" d="M5,0h65a5,5 0 0 1 5,5v35a5,5 0 0 1 -5,5h-65a5,5 0 0 1 -5,-5v-35a5,5 0 0 1 5,-5z" style="stroke: rgb(51, 51, 51); fill: none; stroke-width: 1px;"/></g><g id="node-name-Shape_6" class="node graph-node" transform="translate(245.49221801757812,89)" style="opacity: 1;"><g class="node-item node-item-type" transform="translate(0,0)"><path d="M5,0h36.375a5,5 0 0 1 5,5v14a5,5 0 0 1 -5,5h-36.375a5,5 0 0 1 -5,-5v-14a5,5 0 0 1 5,-5z" style="stroke: rgb(0, 0, 0); fill: rgb(0, 0, 0); stroke-width: 0;"/><text x="6" y="17" style="font-family: -apple-system, BlinkMacSystemFont, &quot;Segoe WPC&quot;, &quot;Segoe UI&quot;, Ubuntu, &quot;Droid Sans&quot;, sans-serif, &quot;PingFang SC&quot;; font-size: 11px; text-rendering: geometricprecision; fill: rgb(255, 255, 255);">Shape</text><title>Shape_6</title></g><path class="node border" d="M5,0h36.375a5,5 0 0 1 5,5v14a5,5 0 0 1 -5,5h-36.375a5,5 0 0 1 -5,-5v-14a5,5 0 0 1 5,-5z" style="stroke: rgb(51, 51, 51); fill: none; stroke-width: 1px;"/></g><g id="node-name-Gather_8" class="node graph-node" transform="translate(231.17971801757812,133)" style="opacity: 1;"><g class="node-item node-item-type node-item-type-transform" transform="translate(0,0)"><path d="M5,0h65a5,5 0 0 1 5,5v19a0,0 0 0 1 0,0h-75a0,0 0 0 1 0,0v-19a5,5 0 0 1 5,-5z" style="stroke: rgb(0, 0, 0); fill: rgb(51, 85, 68); stroke-width: 0;"/><text x="6" y="17" style="font-family: -apple-system, BlinkMacSystemFont, &quot;Segoe WPC&quot;, &quot;Segoe UI&quot;, Ubuntu, &quot;Droid Sans&quot;, sans-serif, &quot;PingFang SC&quot;; font-size: 11px; text-rendering: geometricprecision; fill: rgb(255, 255, 255);">Gather</text><title>Gather_8</title></g><g class="node-attribute" transform="translate(0,24)"><path d="M0,0h75a0,0 0 0 1 0,0v16a5,5 0 0 1 -5,5h-65a5,5 0 0 1 -5,-5v-16a0,0 0 0 1 0,0z" style="stroke: rgb(0, 0, 0); fill: rgb(255, 255, 255); stroke-width: 0;"/><text id="initializer-8" xml:space="preserve" x="6" y="14" style="font-family: -apple-system, BlinkMacSystemFont, &quot;Segoe WPC&quot;, &quot;Segoe UI&quot;, Ubuntu, &quot;Droid Sans&quot;, sans-serif, &quot;PingFang SC&quot;; font-size: 9px; font-weight: normal; text-rendering: geometricprecision;"><title>int64</title><tspan>indices</tspan><tspan> = 2</tspan></text><line class="node" x1="0" x2="75" y1="0" y2="0" style="stroke: rgb(51, 51, 51); fill: none; stroke-width: 1px;"/></g><path class="node border" d="M5,0h65a5,5 0 0 1 5,5v35a5,5 0 0 1 -5,5h-65a5,5 0 0 1 -5,-5v-35a5,5 0 0 1 5,-5z" style="stroke: rgb(51, 51, 51); fill: none; stroke-width: 1px;"/></g><g id="node-name-Shape_9" class="node graph-node" transform="translate(361.0820770263672,89)" style="opacity: 1;"><g class="node-item node-item-type" transform="translate(0,0)"><path d="M5,0h36.375a5,5 0 0 1 5,5v14a5,5 0 0 1 -5,5h-36.375a5,5 0 0 1 -5,-5v-14a5,5 0 0 1 5,-5z" style="stroke: rgb(0, 0, 0); fill: rgb(0, 0, 0); stroke-width: 0;"/><text x="6" y="17" style="font-family: -apple-system, BlinkMacSystemFont, &quot;Segoe WPC&quot;, &quot;Segoe UI&quot;, Ubuntu, &quot;Droid Sans&quot;, sans-serif, &quot;PingFang SC&quot;; font-size: 11px; text-rendering: geometricprecision; fill: rgb(255, 255, 255);">Shape</text><title>Shape_9</title></g><path class="node border" d="M5,0h36.375a5,5 0 0 1 5,5v14a5,5 0 0 1 -5,5h-36.375a5,5 0 0 1 -5,-5v-14a5,5 0 0 1 5,-5z" style="stroke: rgb(51, 51, 51); fill: none; stroke-width: 1px;"/></g><g id="node-name-Gather_11" class="node graph-node" transform="translate(346.7695770263672,133)" style="opacity: 1;"><g class="node-item node-item-type node-item-type-transform" transform="translate(0,0)"><path d="M5,0h65a5,5 0 0 1 5,5v19a0,0 0 0 1 0,0h-75a0,0 0 0 1 0,0v-19a5,5 0 0 1 5,-5z" style="stroke: rgb(0, 0, 0); fill: rgb(51, 85, 68); stroke-width: 0;"/><text x="6" y="17" style="font-family: -apple-system, BlinkMacSystemFont, &quot;Segoe WPC&quot;, &quot;Segoe UI&quot;, Ubuntu, &quot;Droid Sans&quot;, sans-serif, &quot;PingFang SC&quot;; font-size: 11px; text-rendering: geometricprecision; fill: rgb(255, 255, 255);">Gather</text><title>Gather_11</title></g><g class="node-attribute" transform="translate(0,24)"><path d="M0,0h75a0,0 0 0 1 0,0v16a5,5 0 0 1 -5,5h-65a5,5 0 0 1 -5,-5v-16a0,0 0 0 1 0,0z" style="stroke: rgb(0, 0, 0); fill: rgb(255, 255, 255); stroke-width: 0;"/><text id="initializer-11" xml:space="preserve" x="6" y="14" style="font-family: -apple-system, BlinkMacSystemFont, &quot;Segoe WPC&quot;, &quot;Segoe UI&quot;, Ubuntu, &quot;Droid Sans&quot;, sans-serif, &quot;PingFang SC&quot;; font-size: 9px; font-weight: normal; text-rendering: geometricprecision;"><title>int64</title><tspan>indices</tspan><tspan> = 3</tspan></text><line class="node" x1="0" x2="75" y1="0" y2="0" style="stroke: rgb(51, 51, 51); fill: none; stroke-width: 1px;"/></g><path class="node border" d="M5,0h65a5,5 0 0 1 5,5v35a5,5 0 0 1 -5,5h-65a5,5 0 0 1 -5,-5v-35a5,5 0 0 1 5,-5z" style="stroke: rgb(51, 51, 51); fill: none; stroke-width: 1px;"/></g><g id="node-name-Unsqueeze_12" class="node graph-node" transform="translate(2.1640625,198)" style="opacity: 1;"><g class="node-item node-item-type node-item-type-transform" transform="translate(0,0)"><path d="M5,0h60.671875a5,5 0 0 1 5,5v14a5,5 0 0 1 -5,5h-60.671875a5,5 0 0 1 -5,-5v-14a5,5 0 0 1 5,-5z" style="stroke: rgb(0, 0, 0); fill: rgb(51, 85, 68); stroke-width: 0;"/><text x="6" y="17" style="font-family: -apple-system, BlinkMacSystemFont, &quot;Segoe WPC&quot;, &quot;Segoe UI&quot;, Ubuntu, &quot;Droid Sans&quot;, sans-serif, &quot;PingFang SC&quot;; font-size: 11px; text-rendering: geometricprecision; fill: rgb(255, 255, 255);">Unsqueeze</text><title>Unsqueeze_12</title></g><path class="node border" d="M5,0h60.671875a5,5 0 0 1 5,5v14a5,5 0 0 1 -5,5h-60.671875a5,5 0 0 1 -5,-5v-14a5,5 0 0 1 5,-5z" style="stroke: rgb(51, 51, 51); fill: none; stroke-width: 1px;"/></g><g id="node-name-Unsqueeze_13" class="node graph-node" transform="translate(117.75392150878906,198)" style="opacity: 1;"><g class="node-item node-item-type node-item-type-transform" transform="translate(0,0)"><path d="M5,0h60.671875a5,5 0 0 1 5,5v14a5,5 0 0 1 -5,5h-60.671875a5,5 0 0 1 -5,-5v-14a5,5 0 0 1 5,-5z" style="stroke: rgb(0, 0, 0); fill: rgb(51, 85, 68); stroke-width: 0;"/><text x="6" y="17" style="font-family: -apple-system, BlinkMacSystemFont, &quot;Segoe WPC&quot;, &quot;Segoe UI&quot;, Ubuntu, &quot;Droid Sans&quot;, sans-serif, &quot;PingFang SC&quot;; font-size: 11px; text-rendering: geometricprecision; fill: rgb(255, 255, 255);">Unsqueeze</text><title>Unsqueeze_13</title></g><path class="node border" d="M5,0h60.671875a5,5 0 0 1 5,5v14a5,5 0 0 1 -5,5h-60.671875a5,5 0 0 1 -5,-5v-14a5,5 0 0 1 5,-5z" style="stroke: rgb(51, 51, 51); fill: none; stroke-width: 1px;"/></g><g id="node-name-Unsqueeze_14" class="node graph-node" transform="translate(233.34378051757812,198)" style="opacity: 1;"><g class="node-item node-item-type node-item-type-transform" transform="translate(0,0)"><path d="M5,0h60.671875a5,5 0 0 1 5,5v14a5,5 0 0 1 -5,5h-60.671875a5,5 0 0 1 -5,-5v-14a5,5 0 0 1 5,-5z" style="stroke: rgb(0, 0, 0); fill: rgb(51, 85, 68); stroke-width: 0;"/><text x="6" y="17" style="font-family: -apple-system, BlinkMacSystemFont, &quot;Segoe WPC&quot;, &quot;Segoe UI&quot;, Ubuntu, &quot;Droid Sans&quot;, sans-serif, &quot;PingFang SC&quot;; font-size: 11px; text-rendering: geometricprecision; fill: rgb(255, 255, 255);">Unsqueeze</text><title>Unsqueeze_14</title></g><path class="node border" d="M5,0h60.671875a5,5 0 0 1 5,5v14a5,5 0 0 1 -5,5h-60.671875a5,5 0 0 1 -5,-5v-14a5,5 0 0 1 5,-5z" style="stroke: rgb(51, 51, 51); fill: none; stroke-width: 1px;"/></g><g id="node-name-Unsqueeze_15" class="node graph-node" transform="translate(348.9336395263672,198)" style="opacity: 1;"><g class="node-item node-item-type node-item-type-transform" transform="translate(0,0)"><path d="M5,0h60.671875a5,5 0 0 1 5,5v14a5,5 0 0 1 -5,5h-60.671875a5,5 0 0 1 -5,-5v-14a5,5 0 0 1 5,-5z" style="stroke: rgb(0, 0, 0); fill: rgb(51, 85, 68); stroke-width: 0;"/><text x="6" y="17" style="font-family: -apple-system, BlinkMacSystemFont, &quot;Segoe WPC&quot;, &quot;Segoe UI&quot;, Ubuntu, &quot;Droid Sans&quot;, sans-serif, &quot;PingFang SC&quot;; font-size: 11px; text-rendering: geometricprecision; fill: rgb(255, 255, 255);">Unsqueeze</text><title>Unsqueeze_15</title></g><path class="node border" d="M5,0h60.671875a5,5 0 0 1 5,5v14a5,5 0 0 1 -5,5h-60.671875a5,5 0 0 1 -5,-5v-14a5,5 0 0 1 5,-5z" style="stroke: rgb(51, 51, 51); fill: none; stroke-width: 1px;"/></g><g id="node-name-Concat_16" class="node graph-node" transform="translate(185.8457260131836,242)" style="opacity: 1;"><g class="node-item node-item-type node-item-type-tensor" transform="translate(0,0)"><path d="M5,0h40.078125a5,5 0 0 1 5,5v14a5,5 0 0 1 -5,5h-40.078125a5,5 0 0 1 -5,-5v-14a5,5 0 0 1 5,-5z" style="stroke: rgb(0, 0, 0); fill: rgb(89, 66, 59); stroke-width: 0;"/><text x="6" y="17" style="font-family: -apple-system, BlinkMacSystemFont, &quot;Segoe WPC&quot;, &quot;Segoe UI&quot;, Ubuntu, &quot;Droid Sans&quot;, sans-serif, &quot;PingFang SC&quot;; font-size: 11px; text-rendering: geometricprecision; fill: rgb(255, 255, 255);">Concat</text><title>Concat_16</title></g><path class="node border" d="M5,0h40.078125a5,5 0 0 1 5,5v14a5,5 0 0 1 -5,5h-40.078125a5,5 0 0 1 -5,-5v-14a5,5 0 0 1 5,-5z" style="stroke: rgb(51, 51, 51); fill: none; stroke-width: 1px;"/></g><g id="node-name-ConstantOfShape_17" class="node graph-node" transform="translate(158.6972885131836,286)" style="opacity: 1;"><g class="node-item node-item-type" transform="translate(0,0)"><path d="M5,0h94.375a5,5 0 0 1 5,5v14a5,5 0 0 1 -5,5h-94.375a5,5 0 0 1 -5,-5v-14a5,5 0 0 1 5,-5z" style="stroke: rgb(0, 0, 0); fill: rgb(0, 0, 0); stroke-width: 0;"/><text x="6" y="17" style="font-family: -apple-system, BlinkMacSystemFont, &quot;Segoe WPC&quot;, &quot;Segoe UI&quot;, Ubuntu, &quot;Droid Sans&quot;, sans-serif, &quot;PingFang SC&quot;; font-size: 11px; text-rendering: geometricprecision; fill: rgb(255, 255, 255);">ConstantOfShape</text><title>ConstantOfShape_17</title></g><path class="node border" d="M5,0h94.375a5,5 0 0 1 5,5v14a5,5 0 0 1 -5,5h-94.375a5,5 0 0 1 -5,-5v-14a5,5 0 0 1 5,-5z" style="stroke: rgb(51, 51, 51); fill: none; stroke-width: 1px;"/></g><g class="node" transform="translate(186.3144760131836,330)" style="opacity: 1;"><g class="node-item graph-item-output" transform="translate(0,0)"><path d="M5,0h39.140625a5,5 0 0 1 5,5v14a5,5 0 0 1 -5,5h-39.140625a5,5 0 0 1 -5,-5v-14a5,5 0 0 1 5,-5z" style="stroke: rgb(0, 0, 0); fill: rgb(238, 238, 238); stroke-width: 0;"/><text x="6" y="17" style="font-family: -apple-system, BlinkMacSystemFont, &quot;Segoe WPC&quot;, &quot;Segoe UI&quot;, Ubuntu, &quot;Droid Sans&quot;, sans-serif, &quot;PingFang SC&quot;; font-size: 11px; text-rendering: geometricprecision;">output</text><title>float32[batch,ConstantOfShapeoutput_dim_1,ConstantOfShapeoutput_dim_2,ConstantOfShapeoutput_dim_3]</title></g><path class="node border" d="M5,0h39.140625a5,5 0 0 1 5,5v14a5,5 0 0 1 -5,5h-39.140625a5,5 0 0 1 -5,-5v-14a5,5 0 0 1 5,-5z" style="stroke: rgb(51, 51, 51); fill: none; stroke-width: 1px;"/></g></g></g></svg>